<svg width="720" height="50" viewBox="0 0 720 50" fill="none" xmlns="http://www.w3.org/2000/svg">
<path d="M196.905 25.04H203.945V17.8H206.825V25.04H213.865V27.92H206.825V35.12H203.945V27.92H196.905V25.04ZM219.9 40L229.94 16.56L231.7 14.6L229.34 14.96H217.94V12H234.66V13.08L223.14 40H219.9ZM254.893 48.8C253.666 47.52 252.626 46.1067 251.773 44.56C250.919 43.04 250.226 41.48 249.693 39.88C249.186 38.2533 248.813 36.6267 248.573 35C248.333 33.3467 248.213 31.7733 248.213 30.28C248.213 28.8133 248.333 27.2667 248.573 25.64C248.813 24.0133 249.199 22.3867 249.733 20.76C250.266 19.1067 250.959 17.4933 251.813 15.92C252.693 14.3467 253.759 12.88 255.013 11.52L256.933 12.92C255.866 14.28 254.973 15.6933 254.253 17.16C253.559 18.6 252.999 20.0667 252.573 21.56C252.146 23.0533 251.839 24.5467 251.653 26.04C251.493 27.5067 251.413 28.92 251.413 30.28C251.413 31.56 251.506 32.96 251.692 34.48C251.906 35.9733 252.226 37.48 252.653 39C253.106 40.4933 253.679 41.96 254.373 43.4C255.093 44.84 255.946 46.1467 256.933 47.32L254.893 48.8ZM259.743 33.32C259.743 31.64 260.183 30.1867 261.063 28.96C261.943 27.7067 263.317 26.5733 265.183 25.56C264.517 25.16 263.89 24.7467 263.303 24.32C262.743 23.8667 262.237 23.36 261.783 22.8C261.357 22.24 261.01 21.6133 260.743 20.92C260.503 20.2267 260.383 19.4267 260.383 18.52C260.383 17.48 260.557 16.5333 260.903 15.68C261.277 14.8267 261.797 14.0933 262.463 13.48C263.157 12.8667 263.97 12.3867 264.903 12.04C265.863 11.6933 266.943 11.52 268.143 11.52C269.263 11.52 270.277 11.68 271.183 12C272.09 12.32 272.85 12.76 273.463 13.32C274.103 13.88 274.597 14.5467 274.943 15.32C275.29 16.0933 275.463 16.9467 275.463 17.88C275.463 19.4 275.117 20.7467 274.423 21.92C273.73 23.0667 272.583 24.2 270.983 25.32C271.677 25.72 272.33 26.16 272.943 26.64C273.583 27.12 274.13 27.6533 274.583 28.24C275.063 28.8267 275.437 29.4933 275.703 30.24C275.97 30.96 276.103 31.7867 276.103 32.72C276.103 33.8667 275.917 34.92 275.543 35.88C275.17 36.8133 274.623 37.6267 273.903 38.32C273.183 38.9867 272.303 39.52 271.263 39.92C270.223 40.2933 269.037 40.48 267.703 40.48C266.423 40.48 265.29 40.2933 264.303 39.92C263.317 39.5467 262.477 39.04 261.783 38.4C261.117 37.76 260.61 37.0133 260.263 36.16C259.917 35.28 259.743 34.3333 259.743 33.32ZM272.983 32.92C272.983 32.12 272.823 31.4267 272.503 30.84C272.183 30.2267 271.757 29.68 271.223 29.2C270.717 28.6933 270.13 28.24 269.463 27.84C268.797 27.44 268.103 27.0533 267.383 26.68C265.757 27.5867 264.597 28.6 263.903 29.72C263.21 30.84 262.863 31.9067 262.863 32.92C262.863 33.56 262.97 34.1733 263.183 34.76C263.397 35.3467 263.717 35.8533 264.143 36.28C264.57 36.7067 265.09 37.0533 265.703 37.32C266.343 37.56 267.077 37.68 267.903 37.68C268.57 37.68 269.21 37.5867 269.823 37.4C270.437 37.1867 270.97 36.8933 271.423 36.52C271.903 36.12 272.277 35.6267 272.543 35.04C272.837 34.4267 272.983 33.72 272.983 32.92ZM263.503 18.44C263.503 19.1867 263.65 19.8533 263.943 20.44C264.237 21 264.623 21.5067 265.103 21.96C265.61 22.4133 266.183 22.84 266.823 23.24C267.463 23.6133 268.13 23.9733 268.823 24.32C270.023 23.3867 270.903 22.4667 271.463 21.56C272.05 20.6533 272.343 19.6533 272.343 18.56C272.343 17.2 271.917 16.16 271.063 15.44C270.237 14.6933 269.237 14.32 268.063 14.32C267.343 14.32 266.703 14.44 266.143 14.68C265.583 14.92 265.103 15.2267 264.703 15.6C264.303 15.9733 263.997 16.4133 263.783 16.92C263.597 17.4 263.503 17.9067 263.503 18.44ZM283.14 37.04H288.74V17.68L289.14 15.32L287.54 17.2L283.14 20.36L281.62 18.32L290.42 11.52H291.86V37.04H297.34V40H283.14V37.04ZM318.457 18.36C318.457 19.7733 318.191 21.2267 317.657 22.72C317.151 24.1867 316.471 25.6667 315.617 27.16C314.791 28.6533 313.857 30.12 312.817 31.56C311.777 32.9733 310.737 34.32 309.697 35.6L307.737 37.32V37.48L310.297 37.04H319.017V40H303.097V38.84C303.684 38.2267 304.391 37.4667 305.217 36.56C306.044 35.6533 306.897 34.6533 307.777 33.56C308.684 32.44 309.564 31.2667 310.417 30.04C311.297 28.7867 312.084 27.52 312.777 26.24C313.497 24.96 314.071 23.6933 314.497 22.44C314.924 21.1867 315.137 20 315.137 18.88C315.137 17.5733 314.764 16.4933 314.017 15.64C313.271 14.76 312.137 14.32 310.617 14.32C309.604 14.32 308.617 14.5333 307.657 14.96C306.697 15.36 305.871 15.8267 305.177 16.36L303.857 14.08C304.791 13.28 305.897 12.6533 307.177 12.2C308.457 11.7467 309.831 11.52 311.297 11.52C312.444 11.52 313.457 11.6933 314.337 12.04C315.217 12.36 315.964 12.8267 316.577 13.44C317.191 14.0533 317.657 14.7867 317.977 15.64C318.297 16.4667 318.457 17.3733 318.457 18.36ZM324.534 11.52C325.761 12.8 326.801 14.2133 327.654 15.76C328.507 17.28 329.187 18.8533 329.694 20.48C330.227 22.08 330.614 23.7067 330.854 25.36C331.094 26.9867 331.214 28.5467 331.214 30.04C331.214 31.5067 331.094 33.0533 330.854 34.68C330.614 36.3067 330.227 37.9467 329.694 39.6C329.161 41.2267 328.454 42.8267 327.574 44.4C326.721 45.9733 325.667 47.44 324.414 48.8L322.494 47.4C323.561 46.04 324.454 44.6267 325.174 43.16C325.894 41.6933 326.454 40.2133 326.854 38.72C327.281 37.2267 327.574 35.7467 327.734 34.28C327.921 32.8133 328.014 31.4 328.014 30.04C328.014 28.76 327.907 27.3733 327.694 25.88C327.481 24.3867 327.147 22.88 326.694 21.36C326.267 19.84 325.707 18.36 325.014 16.92C324.321 15.48 323.481 14.1733 322.494 13L324.534 11.52ZM347.009 33.32C347.009 31.64 347.449 30.1867 348.329 28.96C349.209 27.7067 350.582 26.5733 352.449 25.56C351.782 25.16 351.156 24.7467 350.569 24.32C350.009 23.8667 349.502 23.36 349.049 22.8C348.622 22.24 348.276 21.6133 348.009 20.92C347.769 20.2267 347.649 19.4267 347.649 18.52C347.649 17.48 347.822 16.5333 348.169 15.68C348.542 14.8267 349.062 14.0933 349.729 13.48C350.422 12.8667 351.236 12.3867 352.169 12.04C353.129 11.6933 354.209 11.52 355.409 11.52C356.529 11.52 357.542 11.68 358.449 12C359.356 12.32 360.116 12.76 360.729 13.32C361.369 13.88 361.862 14.5467 362.209 15.32C362.556 16.0933 362.729 16.9467 362.729 17.88C362.729 19.4 362.382 20.7467 361.689 21.92C360.996 23.0667 359.849 24.2 358.249 25.32C358.942 25.72 359.596 26.16 360.209 26.64C360.849 27.12 361.396 27.6533 361.849 28.24C362.329 28.8267 362.702 29.4933 362.969 30.24C363.236 30.96 363.369 31.7867 363.369 32.72C363.369 33.8667 363.182 34.92 362.809 35.88C362.436 36.8133 361.889 37.6267 361.169 38.32C360.449 38.9867 359.569 39.52 358.529 39.92C357.489 40.2933 356.302 40.48 354.969 40.48C353.689 40.48 352.556 40.2933 351.569 39.92C350.582 39.5467 349.742 39.04 349.049 38.4C348.382 37.76 347.876 37.0133 347.529 36.16C347.182 35.28 347.009 34.3333 347.009 33.32ZM360.249 32.92C360.249 32.12 360.089 31.4267 359.769 30.84C359.449 30.2267 359.022 29.68 358.489 29.2C357.982 28.6933 357.396 28.24 356.729 27.84C356.062 27.44 355.369 27.0533 354.649 26.68C353.022 27.5867 351.862 28.6 351.169 29.72C350.476 30.84 350.129 31.9067 350.129 32.92C350.129 33.56 350.236 34.1733 350.449 34.76C350.662 35.3467 350.982 35.8533 351.409 36.28C351.836 36.7067 352.356 37.0533 352.969 37.32C353.609 37.56 354.342 37.68 355.169 37.68C355.836 37.68 356.476 37.5867 357.089 37.4C357.702 37.1867 358.236 36.8933 358.689 36.52C359.169 36.12 359.542 35.6267 359.809 35.04C360.102 34.4267 360.249 33.72 360.249 32.92ZM350.769 18.44C350.769 19.1867 350.916 19.8533 351.209 20.44C351.502 21 351.889 21.5067 352.369 21.96C352.876 22.4133 353.449 22.84 354.089 23.24C354.729 23.6133 355.396 23.9733 356.089 24.32C357.289 23.3867 358.169 22.4667 358.729 21.56C359.316 20.6533 359.609 19.6533 359.609 18.56C359.609 17.2 359.182 16.16 358.329 15.44C357.502 14.6933 356.502 14.32 355.329 14.32C354.609 14.32 353.969 14.44 353.409 14.68C352.849 14.92 352.369 15.2267 351.969 15.6C351.569 15.9733 351.262 16.4133 351.049 16.92C350.862 17.4 350.769 17.9067 350.769 18.44ZM370.406 37.04H376.006V17.68L376.406 15.32L374.806 17.2L370.406 20.36L368.886 18.32L377.686 11.52H379.126V37.04H384.606V40H370.406V37.04ZM405.723 18.36C405.723 19.7733 405.456 21.2267 404.923 22.72C404.416 24.1867 403.736 25.6667 402.883 27.16C402.056 28.6533 401.123 30.12 400.083 31.56C399.043 32.9733 398.003 34.32 396.963 35.6L395.003 37.32V37.48L397.563 37.04H406.283V40H390.363V38.84C390.949 38.2267 391.656 37.4667 392.483 36.56C393.309 35.6533 394.163 34.6533 395.043 33.56C395.949 32.44 396.829 31.2667 397.683 30.04C398.563 28.7867 399.349 27.52 400.043 26.24C400.763 24.96 401.336 23.6933 401.763 22.44C402.189 21.1867 402.403 20 402.403 18.88C402.403 17.5733 402.029 16.4933 401.283 15.64C400.536 14.76 399.403 14.32 397.883 14.32C396.869 14.32 395.883 14.5333 394.923 14.96C393.963 15.36 393.136 15.8267 392.443 16.36L391.123 14.08C392.056 13.28 393.163 12.6533 394.443 12.2C395.723 11.7467 397.096 11.52 398.563 11.52C399.709 11.52 400.723 11.6933 401.603 12.04C402.483 12.36 403.229 12.8267 403.843 13.44C404.456 14.0533 404.923 14.7867 405.243 15.64C405.563 16.4667 405.723 17.3733 405.723 18.36ZM412.04 27H421.72V29.96H412.04V27ZM428.414 37.04H434.014V17.68L434.414 15.32L432.814 17.2L428.414 20.36L426.894 18.32L435.694 11.52H437.134V37.04H442.614V40H428.414V37.04ZM463.731 18.36C463.731 19.7733 463.464 21.2267 462.931 22.72C462.424 24.1867 461.744 25.6667 460.891 27.16C460.064 28.6533 459.131 30.12 458.091 31.56C457.051 32.9733 456.011 34.32 454.971 35.6L453.011 37.32V37.48L455.571 37.04H464.291V40H448.371V38.84C448.957 38.2267 449.664 37.4667 450.491 36.56C451.317 35.6533 452.171 34.6533 453.051 33.56C453.957 32.44 454.837 31.2667 455.691 30.04C456.571 28.7867 457.357 27.52 458.051 26.24C458.771 24.96 459.344 23.6933 459.771 22.44C460.197 21.1867 460.411 20 460.411 18.88C460.411 17.5733 460.037 16.4933 459.291 15.64C458.544 14.76 457.411 14.32 455.891 14.32C454.877 14.32 453.891 14.5333 452.931 14.96C451.971 15.36 451.144 15.8267 450.451 16.36L449.131 14.08C450.064 13.28 451.171 12.6533 452.451 12.2C453.731 11.7467 455.104 11.52 456.571 11.52C457.717 11.52 458.731 11.6933 459.611 12.04C460.491 12.36 461.237 12.8267 461.851 13.44C462.464 14.0533 462.931 14.7867 463.251 15.64C463.571 16.4667 463.731 17.3733 463.731 18.36ZM470.048 27H479.728V29.96H470.048V27ZM486.422 37.04H492.022V17.68L492.422 15.32L490.822 17.2L486.422 20.36L484.902 18.32L493.702 11.52H495.142V37.04H500.622V40H486.422V37.04ZM521.738 18.36C521.738 19.7733 521.472 21.2267 520.938 22.72C520.432 24.1867 519.752 25.6667 518.898 27.16C518.072 28.6533 517.138 30.12 516.098 31.56C515.058 32.9733 514.018 34.32 512.978 35.6L511.018 37.32V37.48L513.578 37.04H522.298V40H506.378V38.84C506.965 38.2267 507.672 37.4667 508.498 36.56C509.325 35.6533 510.178 34.6533 511.058 33.56C511.965 32.44 512.845 31.2667 513.698 30.04C514.578 28.7867 515.365 27.52 516.058 26.24C516.778 24.96 517.352 23.6933 517.778 22.44C518.205 21.1867 518.418 20 518.418 18.88C518.418 17.5733 518.045 16.4933 517.298 15.64C516.552 14.76 515.418 14.32 513.898 14.32C512.885 14.32 511.898 14.5333 510.938 14.96C509.978 15.36 509.152 15.8267 508.458 16.36L507.138 14.08C508.072 13.28 509.178 12.6533 510.458 12.2C511.738 11.7467 513.112 11.52 514.578 11.52C515.725 11.52 516.738 11.6933 517.618 12.04C518.498 12.36 519.245 12.8267 519.858 13.44C520.472 14.0533 520.938 14.7867 521.258 15.64C521.578 16.4667 521.738 17.3733 521.738 18.36Z" fill="black"/>
</svg>
